<svg xmlns="http://www.w3.org/2000/svg" viewBox="0 0 56 56" fill="none">
  <defs>
    <linearGradient id="lg" x1="6" y1="6" x2="50" y2="50" gradientUnits="userSpaceOnUse">
      <stop offset="0%" stop-color="#E5703A"/>
      <stop offset="100%" stop-color="#7B3115"/>
    </linearGradient>
    <clipPath id="hc">
      <polygon points="28,6 47,17 47,39 28,50 9,39 9,17"/>
    </clipPath>
  </defs>
  <polygon points="28,6 47,17 47,39 28,50 9,39 9,17" fill="rgba(196,92,38,0.07)"/>
  <polygon points="28,6 47,17 47,39 28,50 9,39 9,17" stroke="url(#lg)" stroke-width="2.2" stroke-linejoin="round"/>
  <g clip-path="url(#hc)">
    <path d="M 41,16 A 22,22 0 0,0 19,38" stroke="url(#lg)" stroke-width="1.5" stroke-linecap="round" opacity="0.28"/>
    <path d="M 41,23 A 15,15 0 0,0 26,38" stroke="url(#lg)" stroke-width="2" stroke-linecap="round" opacity="0.58"/>
    <path d="M 41,30 A 8,8 0 0,0 33,38" stroke="url(#lg)" stroke-width="2.5" stroke-linecap="round" opacity="0.9"/>
    <circle cx="41" cy="38" r="3" fill="url(#lg)"/>
  </g>
</svg>
